/* XPM */
static char *dc6c3afe3e674b63b18afedf849c819dF3FZmTo6G6isgLSw[] = {
/* columns rows colors chars-per-pixel */
"50 50 198 2 ",
"   c None",
".  c #000005",
"X  c #07000A",
"o  c #150101",
"O  c #010314",
"+  c #00021C",
"@  c #1A1013",
"#  c #2E0001",
"$  c #250705",
"%  c #340000",
"&  c #3A0000",
"*  c #33000F",
"=  c #28161D",
"-  c #360E17",
";  c #02082A",
":  c #07122C",
">  c #050637",
",  c #02163C",
"<  c #1D1A3B",
"1  c #3E1935",
"2  c #0B233F",
"3  c #1F213F",
"4  c #362A2B",
"5  c #440004",
"6  c #4C0209",
"7  c #490000",
"8  c #5E0006",
"9  c #540409",
"0  c #4C0719",
"q  c #471A18",
"w  c #551A19",
"e  c #540B10",
"r  c #640000",
"t  c #60000B",
"y  c #760714",
"u  c #69191C",
"i  c #7B141A",
"p  c #531325",
"a  c #5B1720",
"s  c #441630",
"d  c #661825",
"f  c #472626",
"g  c #452838",
"h  c #4F302F",
"j  c #60363E",
"k  c #7B2627",
"l  c #0A1D47",
"z  c #0D2745",
"x  c #082454",
"c  c #142454",
"v  c #0F3D5F",
"b  c #113259",
"n  c #193D5F",
"m  c #2B2B4B",
"M  c #073665",
"N  c #163665",
"B  c #122C62",
"V  c #552644",
"C  c #4E3057",
"Z  c #6F2F4B",
"A  c #702F4C",
"S  c #683A4F",
"D  c #24435D",
"F  c #154466",
"G  c #194A73",
"H  c #244A63",
"J  c #324664",
"K  c #4D525C",
"L  c #50555D",
"P  c #535760",
"I  c #504D62",
"U  c #676071",
"Y  c #870407",
"T  c #9E0004",
"R  c #9A111E",
"E  c #910F15",
"W  c #A3000C",
"Q  c #A70615",
"!  c #A51919",
"~  c #BB1419",
"^  c #B1091C",
"/  c #B60E23",
"(  c #892827",
")  c #9D2827",
"_  c #AF3129",
"`  c #B83D3A",
"'  c #B02C27",
"]  c #C91D1C",
"[  c #C51F26",
"{  c #C92828",
"}  c #D53F33",
"|  c #DA4837",
" . c #E5493A",
".. c #853859",
"X. c #C33E44",
"o. c #904057",
"O. c #8B4455",
"+. c #8A4865",
"@. c #8A5573",
"#. c #D95346",
"$. c #064B87",
"%. c #235581",
"&. c #2B5D89",
"*. c #295B99",
"=. c #375894",
"-. c #2E6B9D",
";. c #256696",
":. c #32659C",
">. c #356DA9",
",. c #2E71A0",
"<. c #3774A9",
"1. c #3271AA",
"2. c #516386",
"3. c #48718F",
"4. c #537295",
"5. c #7F709B",
"6. c #6F6E81",
"7. c #B45F80",
"8. c #927081",
"9. c #CC6280",
"0. c #E96686",
"q. c #3A82AF",
"w. c #3682B5",
"e. c #62879C",
"r. c #418ABE",
"t. c #6688A6",
"y. c #6D8FB0",
"u. c #7597B8",
"i. c #7390A7",
"p. c #3B89C3",
"a. c #3D92C4",
"s. c #448CC5",
"d. c #468FCA",
"f. c #4090C8",
"g. c #4D9FDB",
"h. c #519AD0",
"j. c #539ACD",
"k. c #52A3D6",
"l. c #53A6DE",
"z. c #4AA3DD",
"x. c #7AAAC1",
"c. c #5BABE5",
"v. c #5CB3EB",
"b. c #53B2EB",
"n. c #64B4F0",
"m. c #918C96",
"M. c #A5898B",
"N. c #8C9DAB",
"B. c #A683B3",
"V. c #87A1BD",
"C. c #9BACB7",
"Z. c #B8A4A9",
"A. c #BBAFBE",
"S. c #BDB7B6",
"D. c #E8859E",
"F. c #F496A3",
"G. c #9FD3BE",
"H. c #A1D1BB",
"J. c #8AB3C5",
"K. c #99B6C4",
"L. c #93BED8",
"P. c #ACBCD0",
"I. c #EEB1C1",
"U. c #AACCCF",
"Y. c #B0CBD2",
"T. c #B6D3D1",
"R. c #BBD3D4",
"E. c #B2D7D9",
"W. c #ACD5CF",
"Q. c #B6D6E3",
"!. c #BFE3EE",
"~. c #C4DBD4",
"^. c #CFE7DE",
"/. c #D5E4DB",
"(. c #DCE6DF",
"). c #DBEBDC",
"_. c #D0E3D6",
"`. c #E1EEDD",
"'. c #C2DDE8",
"]. c #EEDBEE",
"[. c #FBDAE3",
"{. c #C8E6E9",
"}. c #DBECE5",
"|. c #D4EDE8",
" X c #DDF2EB",
".X c #D1EDF6",
"XX c #E3EDE0",
"oX c #F9E7E7",
"OX c #EBF5E5",
"+X c #E9F6E8",
"@X c #F5FAE6",
"#X c #FAFDE7",
"$X c #F4FBED",
"%X c #FDFEEA",
"&X c #E6FEF7",
"*X c #FFFFF2",
"=X c #FFFFFE",
"-X c #F6FBF3",
/* pixels */
"                                                                                                    ",
"                                                                                                    ",
"                                                  . . .                                             ",
"                                                y ( k ( ( #                                         ",
"                                              - {  .| | } y                                         ",
"                                              = # q ' w o 5                                         ",
"                                              9 g 4 i f 4 d 6                                       ",
"                                              t X.` ) ` #.R 7                                       ",
"                                                Q _ u ) { 8                                         ",
"                                                a ! ) _ E                                           ",
"                                                  6 ! y @                                           ",
"                                                  # 6 5 *                                           ",
"                                              E.P.S 9 r @.Q.G.                                      ",
"                                          T.=X=X-X|.Z.S.&X*X=X=X                                    ",
"                                        H.=X%X%X%X%X=X=X%X%X@X*X=X                                  ",
"                                        _.OXOX#X%X%X%X%X%X%XOXOX-XW.                                ",
"                                        *XR.~.%X%X%X%X%X%X%XXXU.(.$X                                ",
"                                        =XR.K.@X%X%X%X%X%X%XR.J.).=X                                ",
"                                      %X$XR.V.XX%X%X#X%X%X%XK.K.^.$X$X                              ",
"                                      =X=XQ.u.}.*X%X%X%X%X%XC.V..X=X=X                              ",
"                                        m.N.t.}.*X#X%X%X%X%XK.i.C.6.                                ",
"                                        & o 3.+X*X%X%X#X%X*XE.n o &                                 ",
"                                        ^ 5 4.&X%X#X%XXX/.%X!.J r /                                 ",
"                                      f ^ 0 t. X%X%X%X`.~.@X{.2.8 [                                 ",
"                                        W s x.|.OX%X%X).T.OX'.t.0 ~                                 ",
"                                        W s J.|.).@X%X`.T.OX'.y.p ~                                 ",
"                                        T 1 L.^.R./.%X/.T.).{.u.p ~                                 ",
"                                      f ] i N.{.Y.R.`.R.Y.R.{.6.i [ 4                               ",
"                                      w { Y U .X XXX X}.}.|.E.j ! ' q                               ",
"                                      u y e g J K L P P K L H d u E w                               ",
"                                      u Y % = $.M , . + x $.M % e Q f                               ",
"                                        -   F z.g.-.; b p.z.a.z $ w                                 ",
"                                            >.v.c.<.: n f.l.v.*.                                    ",
"                                            <.v.k.-.+ z s.l.v.=.                                    ",
"                                            <.v.k.&.+ 2 p.l.v.=.                                    ",
"                                            s.v.k.N     :.v.c.s.                                    ",
"                                            s.c.<.x     N h.n.s.                                    ",
"                                            j.r.;.c     B 1.h.d.                                    ",
"                                            ,.,.;.>     l -.-.<.                                    ",
"                                            M G v ;     > G G F                                     ",
"                                          c %.b , ;     > l n %.c                                   ",
"                                          *.a.w.%.l     x &.q.a.-.                                  ",
"                                          z H F N l     x N H D z                                   ",
"                                          8.OX+.; O     O : M.$XO.                                  ",
"                                        j D.F.7.2.<     3 e.9.F.0.                                  ",
"                                        oXoXZ.e.5.I     C 4.C.I.[.A.                                ",
"                                      B.=X=X.X2.C V     C C J.=X=X].                                ",
"                                      V +.....V <       m m Z ..o.A                                 ",
"                                                                                                    ",
"                                                                                                    "
};
