/* XPM */
static char *_7c0416dd8ba4b41dfcecb03914482f7hRmzl4XxNJUHLLcp[] = {
/* columns rows colors chars-per-pixel */
"50 50 190 2 ",
"   c None",
".  c #020002",
"X  c #0A0003",
"o  c #03020B",
"O  c #0D040A",
"+  c #0A0C0D",
"@  c #1B050E",
"#  c #170308",
"$  c #09031E",
"%  c #170818",
"&  c #041C17",
"*  c #2B0001",
"=  c #29080C",
"-  c #3B000D",
";  c #350004",
":  c #330912",
">  c #040425",
",  c #071828",
"<  c #040E33",
"1  c #070334",
"2  c #0B1238",
"3  c #1B202E",
"4  c #0D2533",
"5  c #033427",
"6  c #3C3E31",
"7  c #410000",
"8  c #4E040F",
"9  c #51040D",
"0  c #43021F",
"q  c #570914",
"w  c #51151B",
"e  c #760508",
"r  c #7B151B",
"t  c #770A1B",
"y  c #541D22",
"u  c #4E1125",
"i  c #7E1D23",
"p  c #771F3E",
"a  c #572139",
"s  c #702429",
"d  c #100A40",
"f  c #0F1A4C",
"g  c #161943",
"h  c #341C44",
"j  c #092553",
"k  c #0F395F",
"l  c #1F355A",
"z  c #032846",
"x  c #383945",
"c  c #373F5B",
"v  c #152F66",
"b  c #0B3062",
"n  c #193A69",
"m  c #203169",
"M  c #253976",
"N  c #4E3950",
"B  c #692545",
"V  c #793C68",
"C  c #04415E",
"Z  c #3F4649",
"A  c #194169",
"S  c #164973",
"D  c #1C4B77",
"F  c #384060",
"G  c #234B7D",
"H  c #3D5D7A",
"J  c #524848",
"K  c #67495E",
"L  c #76495A",
"P  c #76525B",
"I  c #53506A",
"U  c #544F77",
"Y  c #4D5972",
"T  c #774560",
"R  c #4B637F",
"E  c #6E6D6E",
"W  c #8C0001",
"Q  c #960C0B",
"!  c #820D1B",
"~  c #890C18",
"^  c #990D18",
"/  c #88171F",
"(  c #A10316",
")  c #AE1E13",
"_  c #B31809",
"`  c #B92515",
"'  c #971722",
"]  c #8C1C29",
"[  c #A81722",
"{  c #852428",
"}  c #AC2628",
"|  c #B12429",
" . c #B7372C",
".. c #C52F1F",
"X. c #C92025",
"o. c #D1332F",
"O. c #C93831",
"+. c #EB3E3A",
"@. c #C9463C",
"#. c #D34531",
"$. c #823D58",
"%. c #8B405C",
"&. c #874059",
"*. c #A34455",
"=. c #355590",
"-. c #2A5C82",
";. c #2C6794",
":. c #20719D",
">. c #34729D",
",. c #346B9A",
"<. c #2762A0",
"1. c #3577AC",
"2. c #3876A5",
"3. c #347BB3",
"4. c #5F6786",
"5. c #7C6883",
"6. c #BC4F82",
"7. c #AC6E89",
"8. c #3B80AC",
"9. c #3B88BA",
"0. c #718699",
"q. c #4996BE",
"w. c #7E9AB2",
"e. c #448CC6",
"r. c #4394CB",
"t. c #498ED2",
"y. c #4B9AD7",
"u. c #539AC5",
"i. c #6F8EC8",
"p. c #55A7D9",
"a. c #4D9EE9",
"s. c #54ACE1",
"d. c #5BB3EB",
"f. c #5AB8F4",
"g. c #61C4FF",
"h. c #AF8399",
"j. c #988EBD",
"k. c #8486A3",
"l. c #BE97A2",
"z. c #8BA4AE",
"x. c #96A6AC",
"c. c #89A7B6",
"v. c #88B2BF",
"b. c #9CB2BC",
"n. c #ADA8B4",
"m. c #CF81A2",
"M. c #C59AB1",
"N. c #94CDB1",
"B. c #8D86CE",
"V. c #87A8C2",
"C. c #97AFC0",
"Z. c #9BBCC9",
"A. c #A7B8C6",
"S. c #9EB5EF",
"D. c #C99BCD",
"F. c #9EC4D2",
"G. c #ABCEC8",
"H. c #ACC6C7",
"J. c #B5CBCE",
"K. c #AFDCC1",
"L. c #B5D8CA",
"P. c #BFE3CD",
"I. c #B3CFFF",
"U. c #BAD8F7",
"Y. c #B8E2E6",
"T. c #CACBD6",
"R. c #C1E2CC",
"E. c #CEEAD6",
"W. c #D8E7DF",
"Q. c #CBCCE3",
"!. c #E3DFEB",
"~. c #FDD9E0",
"^. c #C5EAED",
"/. c #D8E6EA",
"(. c #DEF0E5",
"). c #C9E9FF",
"_. c #D5EBFF",
"`. c #CAF6F8",
"'. c #DEFFFF",
"]. c #E3EFE7",
"[. c #E8E8EB",
"{. c #F9E6EF",
"}. c #EFF5E7",
"|. c #EFFBED",
" X c #E2F1E3",
".X c #FDFEED",
"XX c #F3FAE7",
"oX c #E7F8F7",
"OX c #FEFFFE",
"+X c #F6FDF3",
/* pixels */
"                                                                                                    ",
"                                                    & & &                                           ",
"                                                O X X X . . ,                                       ",
"                                              + . O @ # : { ~ 6                                     ",
"                                              o . O @ : / O.+.]                                     ",
"                                              o O @ @ ! ' = = w                                     ",
"                                              o ; q q ' } N u w                                     ",
"                                                ; t ! / } @.@.[                                     ",
"                                                + 8 q ! |  . .r                                     ",
"                                                  # - q [ O.X.y                                     ",
"                                                  7 W 9 - ~ (                                       ",
"                                                  T *.e X                                           ",
"                                                  _.'.l.                                            ",
"                                                Q..X+XOXOX                                          ",
"                                                OX.X.X XOXE.                                        ",
"                                                !.XX}.].(.+X                                        ",
"                                                [..X XF.J.OX                                        ",
"                                                OX.X|.Z.C.OXN.                                      ",
"                                              c.OX}.W.H.c.OXE.                                      ",
"                                              c.OXOXoXZ.z.OXP.                                      ",
"                                                U E x.z.b.OXP.                                      ",
"                                              i.h ; # x Y.OXR.                                      ",
"                                              S.N Q Q K `.OXK.                                      ",
"                                              I.I Q ) K `.|.L.                                      ",
"                                              U.4.e ) L ^.(.L.                                      ",
"                                            V.U.0.e ` L ^.].G.                                      ",
"                                            v.U.w.r _ P `.].L.                                      ",
"                                            V.U.c.r ..s z./.G.                                      ",
"                                            B.).Z.r #.! * T.^.                                      ",
"                                              Y c r o.i * J                                         ",
"                                                > 9 ( ^ - o                                         ",
"                                                j > * 7 %                                           ",
"                                                m D S :.<.                                          ",
"                                                M ;.e.g.a.                                          ",
"                                                m 1.s.s.t.                                          ",
"                                                n ;.r.s.y.                                          ",
"                                              , b S r.d.e.                                          ",
"                                              f 1.y.f.f.=.                                          ",
"                                              v p.d.9.3.l                                           ",
"                                              f 2.;.k n                                             ",
"                                            4 G >.j z 2                                             ",
"                                            $ k G 2.q.,.                                            ",
"                                            1 A 8.u.-.C g                                           ",
"                                            d D A < < 5.M.x                                         ",
"                                            , > o F A.7.h.6.J                                       ",
"                                              k.H R v.c.0.n.~.{.x.                                  ",
"                                            Z m.7.V V j./.|.OXOXD.5                                 ",
"                                            3 0 u p p B $.%.&.%.a                                   ",
"                                                                                                    ",
"                                                                                                    "
};
