/* XPM */
static char *_526137055084bc1ccd1becb093aabd7oVty3uDLSXYgU958[] = {
/* columns rows colors chars-per-pixel */
"50 50 195 2 ",
"   c None",
".  c #040001",
"X  c #0B0006",
"o  c #03020B",
"O  c #08000C",
"+  c #13030D",
"@  c #1E040B",
"#  c #180000",
"$  c #00021B",
"%  c #060C18",
"&  c #2A0000",
"*  c #23040B",
"=  c #27040A",
"-  c #350005",
";  c #3B0002",
":  c #36000B",
">  c #3D0C15",
",  c #26251F",
"<  c #030025",
"1  c #060B29",
"2  c #04182B",
"3  c #040A36",
"4  c #0B123C",
"5  c #041838",
"6  c #131C3A",
"7  c #3C002D",
"8  c #351926",
"9  c #0E3F26",
"0  c #08253B",
"q  c #15203F",
"w  c #2C2925",
"e  c #32283A",
"r  c #343935",
"t  c #25322A",
"y  c #430002",
"u  c #4B0000",
"i  c #41030E",
"p  c #540009",
"a  c #500000",
"s  c #4B0415",
"d  c #570B17",
"f  c #55131D",
"g  c #6D030C",
"h  c #620000",
"j  c #700004",
"k  c #740415",
"l  c #7E0416",
"z  c #6D151D",
"x  c #7E1B1F",
"c  c #640D1B",
"v  c #7B211E",
"b  c #4C1B22",
"n  c #5D1328",
"m  c #4D2023",
"M  c #3E4C36",
"N  c #111A41",
"B  c #0B1445",
"V  c #06234A",
"C  c #0E2C4F",
"Z  c #0B304C",
"A  c #0A2F5D",
"S  c #06385D",
"D  c #193559",
"F  c #3E3A4D",
"G  c #263554",
"H  c #292B4A",
"J  c #153B63",
"K  c #4C2C4D",
"L  c #523255",
"P  c #702D47",
"I  c #622A5A",
"U  c #7D265D",
"Y  c #5D376C",
"T  c #5A3A65",
"R  c #61346D",
"E  c #184669",
"W  c #0F487D",
"Q  c #194974",
"!  c #204E7E",
"~  c #28597E",
"^  c #3F5574",
"/  c #2E4F68",
"(  c #41455B",
")  c #5A535E",
"_  c #684854",
"`  c #454666",
"'  c #694069",
"]  c #7C5F6A",
"[  c #796C76",
"{  c #6D787F",
"}  c #7C636A",
"|  c #890F0E",
" . c #9D0A09",
".. c #9B1C13",
"X. c #9F161C",
"o. c #971818",
"O. c #911511",
"+. c #A3170E",
"@. c #B01C10",
"#. c #9B2014",
"$. c #B12719",
"%. c #8C1224",
"&. c #9E1222",
"*. c #B62629",
"=. c #AB352C",
"-. c #AC322E",
";. c #CD021B",
":. c #C03D2F",
">. c #CC312C",
",. c #CF4436",
"<. c #D2493A",
"1. c #824D4F",
"2. c #AC4241",
"3. c #8D406A",
"4. c #8F5876",
"5. c #AD516C",
"6. c #EA4E41",
"7. c #225C8A",
"8. c #295C95",
"9. c #2C618C",
"0. c #2A679A",
"q. c #31699E",
"w. c #286FA4",
"e. c #3267A2",
"r. c #2C76A8",
"t. c #3B7DB2",
"y. c #3478A7",
"u. c #615580",
"i. c #707C97",
"p. c #797585",
"a. c #8E6D89",
"s. c #83798E",
"d. c #867F97",
"f. c #CD7C94",
"g. c #3D83B2",
"h. c #598197",
"j. c #7F929C",
"k. c #7A8485",
"l. c #4087BF",
"z. c #6894A0",
"x. c #388AC6",
"c. c #39A2E3",
"v. c #408EC5",
"b. c #4B94C5",
"n. c #59A7DC",
"m. c #56A4D9",
"M. c #5CABE1",
"N. c #57A2E1",
"B. c #5CB1EC",
"V. c #5CB8ED",
"C. c #5DB7F2",
"Z. c #61B4EC",
"A. c #949599",
"S. c #A99796",
"D. c #879AA5",
"F. c #BA8FA2",
"G. c #BF9CB7",
"H. c #BE9AAA",
"J. c #8CA5BE",
"K. c #9FB5BA",
"L. c #99A1A5",
"P. c #A3B5B7",
"I. c #F39DBC",
"U. c #F98BB8",
"Y. c #F7ADBA",
"T. c #9ED2BB",
"R. c #95B4C9",
"E. c #ABB0C3",
"W. c #B4C6CF",
"Q. c #B4C8C9",
"!. c #B2C7D2",
"~. c #BCDDC8",
"^. c #C9DFD9",
"/. c #C2D7C9",
"(. c #F2C4D4",
"). c #C8E2D5",
"_. c #D4E3DB",
"`. c #F0F4DE",
"'. c #E9F6DD",
"]. c #DBDFE7",
"[. c #DDECE2",
"{. c #D7EAEE",
"}. c #DCF7F3",
"|. c #D5F8F8",
" X c #E4EEE5",
".X c #E1E6EF",
"XX c #EDF6E7",
"oX c #F3FAE6",
"OX c #FFFFED",
"+X c #F2FDEB",
"@X c #E9FFFF",
"#X c #E8FCF6",
"$X c #FEFEF3",
"%X c #FEFFFE",
"&X c #F7F8F8",
/* pixels */
"                                                                                                    ",
"                                                                                                    ",
"                                              . . . . o                                             ",
"                                            . + + > f i i                                           ",
"                                          X O O = -.6.,.>.r                                         ",
"                                          O X + c x v =.*.w                                         ",
"                                          @ s s o.b 2 m g                                           ",
"                                          : k l X.2.1.=.o.                                          ",
"                                            p k %.*.>.$.%.                                          ",
"                                              - k *.:.=.l                                           ",
"                                              # - d X.;.z                                           ",
"                                              n a & w M                                             ",
"                                            W.[.S.d                                                 ",
"                                          .X$X%X%X^.P.                                              ",
"                                        ).%XOX_.XX%X%X                                              ",
"                                        T.&X$X X_.OX%X'.                                            ",
"                                        ~.&X[.!._.OX$XOX                                            ",
"                                        OX$XXXR.!.$XOX$X                                            ",
"                                        %XXX XW.E.$XOX%X                                            ",
"                                      /.%X%X|.R.K.OXOX%X                                            ",
"                                        u.{ P.J.Q.OXOX%X                                            ",
"                                        7 & & ( |.$XOX%X                                            ",
"                                        I .. ._ |.OXoX%XD.                                          ",
"                                        R #.@.} @XOXoX#Xa.                                          ",
"                                        Y #.+.[ @X+XoX}.a.@                                         ",
"                                        Y #.+.[ @XoXXX|.s.;                                         ",
"                                        T #. .p.%X`.XX}.d.u t                                       ",
"                                        T ..$._ }. X_.#Xi.; s                                       ",
"                                        L ..<.h _ |.#X%XD.# p                                       ",
"                                        I  .>.g = k.A.L.) . ;                                       ",
"                                        r j &.| * S 5 o . * y                                       ",
"                                          = u u H c.w.5 & y w                                       ",
"                                            2 S v.B.t.5 9                                           ",
"                                            W x.C.Z.l.1                                             ",
"                                            0.N.M.B.t.1                                             ",
"                                          6 q.m.n.C.9.q                                             ",
"                                          B Q y.n.V.~ q                                             ",
"                                          A w.m.Z.b.J N                                             ",
"                                          8.M.M.m.0.V                                               ",
"                                          e.b.7.r.J 3                                               ",
"                                        4 q.Q 5 E 0 <                                               ",
"                                        N 7.Q ~ C $ 4                                               ",
"                                      % 3 Q b.n.0.V E                                               ",
"                                      2 ! g.9.Z / G 0 D G                                           ",
"                                      6 J V < e (.H.O ` U.]                                         ",
"                                        $ < h.G.5.F.' F 5.f.)                                       ",
"                                        ` ` / W.A.j.{.#Xz.D.%X%X                                    ",
"                                        U 3.P 4.E.].%X%XE.4.Y.I.K                                   ",
"                                        e                   8 8                                     ",
"                                                                                                    "
};
