/* XPM */
static char *_856b3d990f443d2b5a172ce192d7666XC6NA6yXLs6x7lY1[] = {
/* columns rows colors chars-per-pixel */
"32 32 155 2 ",
"   c None",
".  c #060209",
"X  c #16020A",
"o  c #17040D",
"O  c #1F0A0D",
"+  c #071B10",
"@  c #071C10",
"#  c #32110E",
"$  c #31120F",
"%  c #370C10",
"&  c #311410",
"*  c #242719",
"=  c #071428",
"-  c #06112F",
";  c #0D1F36",
":  c #241120",
">  c #20293B",
",  c #410209",
"<  c #420B12",
"1  c #470A15",
"2  c #5C0315",
"3  c #441616",
"4  c #4C1013",
"5  c #55141C",
"6  c #7D0B1A",
"7  c #541A23",
"8  c #512820",
"9  c #592B24",
"0  c #54332D",
"q  c #6B2C2F",
"w  c #752725",
"e  c #7C2033",
"r  c #7D2936",
"t  c #7F2B3A",
"y  c #693136",
"u  c #0D2245",
"i  c #0E2C42",
"p  c #0B3041",
"a  c #13304F",
"s  c #14354F",
"d  c #13384A",
"f  c #112E57",
"g  c #173150",
"h  c #133452",
"j  c #193852",
"k  c #123E5F",
"l  c #252C4B",
"z  c #252F50",
"x  c #3D3856",
"c  c #1A3C69",
"v  c #213F67",
"b  c #4A2E43",
"n  c #743F42",
"m  c #6B3157",
"M  c #723A56",
"N  c #194368",
"B  c #1E4570",
"V  c #1F4C79",
"C  c #31486A",
"Z  c #224C70",
"A  c #23547E",
"S  c #45454D",
"D  c #594755",
"F  c #5E4755",
"G  c #5D565E",
"H  c #674552",
"J  c #735E70",
"K  c #795E70",
"L  c #7F697E",
"P  c #861019",
"I  c #8D1218",
"U  c #8D1C20",
"Y  c #801E2E",
"T  c #B41922",
"R  c #862322",
"E  c #802325",
"W  c #802327",
"Q  c #8B2220",
"!  c #952F2C",
"~  c #9B3029",
"^  c #99302A",
"/  c #9A302A",
"(  c #812A3B",
")  c #AD2B26",
"_  c #AD3028",
"`  c #B8312D",
"'  c #1D5A85",
"]  c #1D5789",
"[  c #235884",
"{  c #245F8E",
"}  c #2B6289",
"|  c #2E6695",
" . c #3670A5",
".. c #3A78A4",
"X. c #62788E",
"o. c #8F718A",
"O. c #99778F",
"+. c #A46680",
"@. c #B07A89",
"#. c #428CBA",
"$. c #4B96CA",
"%. c #4097D2",
"&. c #4D9BD0",
"*. c #519FD1",
"=. c #4FA0DA",
"-. c #54A1DB",
";. c #55A7DE",
":. c #5AA5DD",
">. c #928391",
",. c #949A96",
"<. c #AC8B9D",
"1. c #9E96A6",
"2. c #A09FA9",
"3. c #8FAAA2",
"4. c #B1ABB1",
"5. c #B6B3B6",
"6. c #C0B3BD",
"7. c #B2CFBF",
"8. c #9FB7C1",
"9. c #A1B8C0",
"0. c #B1BFC2",
"q. c #A9C1CD",
"w. c #B4CACA",
"e. c #BFD6DE",
"r. c #C1C9CC",
"t. c #C5CCCE",
"y. c #D2C3CB",
"u. c #C4CBD0",
"i. c #C6D9D8",
"p. c #E0EBDF",
"a. c #E8EBD9",
"s. c #D8E5E0",
"d. c #DDE0E4",
"f. c #D6EDE7",
"g. c #DBE8E3",
"h. c #DFEEE3",
"j. c #DCEEE5",
"k. c #DEEEE7",
"l. c #DAEDE8",
"z. c #E9E7E5",
"x. c #E1EEE3",
"c. c #E5EBE9",
"v. c #EFF8E5",
"b. c #ECF5EC",
"n. c #F4FCE9",
"m. c #F1F8EC",
"M. c #F5F8EC",
"N. c #FBFDEB",
"B. c #FFFFED",
"V. c #FFFFEF",
"C. c #F4F9F2",
"Z. c #F5F9F2",
"A. c #F9FBF3",
"S. c ivory",
"D. c #FFFFFA",
/* pixels */
"                                                                ",
"                              + @                               ",
"                            . o E R 0                           ",
"                            X 1 E ^ w                           ",
"                            2 P y q 8                           ",
"                            4 6 ` _ 9                           ",
"                              , U T 3                           ",
"                              n &                               ",
"                            c.z.,.                              ",
"                          j.M.p.D.7.                            ",
"                          h.g.i.S.a.                            ",
"                          A.s.q.V.m.                            ",
"                        3.d.e.8.V.C.                            ",
"                          b G 9.V.C.                            ",
"                          e Q 0.N.b.                            ",
"                          ( ^ r.n.j.D                           ",
"                          t ! u.v.f.H                           ",
"                          r ^ 5.x.l.F %                         ",
"                          Y ) 7 w.t.S $                         ",
"                          5 I < Z > O $                         ",
"                            : C %.h *                           ",
"                            ] =.-.g                             ",
"                             .:.&.j                             ",
"                          p { *.#.s                             ",
"                          k $.;.[ i                             ",
"                          B | ' u                               ",
"                          c A N - d                             ",
"                        = V ..} a v                             ",
"                        ; f z O.J x +.                          ",
"                          l X.<.1.2.>.4.                        ",
"                          m M o.6.y.L @.K                       ",
"                                                                "
};
