/* XPM */
static char *_aaf51a22c8841899fddcff72ffade7d38OcM2HGLGSCcXae[] = {
/* columns rows colors chars-per-pixel */
"50 50 195 2 ",
"   c None",
".  c #040001",
"X  c #0B0006",
"o  c #03020B",
"O  c #08000C",
"+  c #13030D",
"@  c #1E040B",
"#  c #180000",
"$  c #00021B",
"%  c #060C18",
"&  c #2A0000",
"*  c #23040B",
"=  c #27040A",
"-  c #350005",
";  c #3B0002",
":  c #36000B",
">  c #3D0C15",
",  c #26251F",
"<  c #030025",
"1  c #060B29",
"2  c #04182B",
"3  c #040A36",
"4  c #0B123C",
"5  c #041838",
"6  c #131C3A",
"7  c #3C002D",
"8  c #351926",
"9  c #0E3F26",
"0  c #08253B",
"q  c #15203F",
"w  c #2C2925",
"e  c #32283A",
"r  c #343935",
"t  c #25322A",
"y  c #430002",
"u  c #4B0000",
"i  c #41030E",
"p  c #540009",
"a  c #500000",
"s  c #4B0415",
"d  c #570B17",
"f  c #55131D",
"g  c #6D030C",
"h  c #620000",
"j  c #700004",
"k  c #740415",
"l  c #7E0416",
"z  c #6D151D",
"x  c #7E1B1F",
"c  c #640D1B",
"v  c #7B211E",
"b  c #4C1B22",
"n  c #5D1328",
"m  c #4D2023",
"M  c #3E4C36",
"N  c #111A41",
"B  c #0B1445",
"V  c #06234A",
"C  c #0E2C4F",
"Z  c #0B304C",
"A  c #0A2F5D",
"S  c #06385D",
"D  c #193559",
"F  c #3E3A4D",
"G  c #263554",
"H  c #292B4A",
"J  c #153B63",
"K  c #4C2C4D",
"L  c #523255",
"P  c #702D47",
"I  c #622A5A",
"U  c #7D265D",
"Y  c #5D376C",
"T  c #5A3A65",
"R  c #61346D",
"E  c #184669",
"W  c #0F487D",
"Q  c #194974",
"!  c #204E7E",
"~  c #28597E",
"^  c #3F5574",
"/  c #2E4F68",
"(  c #41455B",
")  c #5A535E",
"_  c #684854",
"`  c #454666",
"'  c #694069",
"]  c #7C5F6A",
"[  c #796C76",
"{  c #6D787F",
"}  c #7C636A",
"|  c #890F0E",
" . c #9D0A09",
".. c #9B1C13",
"X. c #9F161C",
"o. c #971818",
"O. c #911511",
"+. c #A3170E",
"@. c #B01C10",
"#. c #9B2014",
"$. c #B12719",
"%. c #8C1224",
"&. c #9E1222",
"*. c #B62629",
"=. c #AB352C",
"-. c #AC322E",
";. c #CD021B",
":. c #C03D2F",
">. c #CC312C",
",. c #CF4436",
"<. c #D2493A",
"1. c #824D4F",
"2. c #AC4241",
"3. c #8D406A",
"4. c #8F5876",
"5. c #AD516C",
"6. c #EA4E41",
"7. c #225C8A",
"8. c #295C95",
"9. c #2C618C",
"0. c #2A679A",
"q. c #31699E",
"w. c #286FA4",
"e. c #3267A2",
"r. c #2C76A8",
"t. c #3B7DB2",
"y. c #3478A7",
"u. c #615580",
"i. c #707C97",
"p. c #797585",
"a. c #8E6D89",
"s. c #83798E",
"d. c #867F97",
"f. c #CD7C94",
"g. c #3D83B2",
"h. c #598197",
"j. c #7F929C",
"k. c #7A8485",
"l. c #4087BF",
"z. c #6894A0",
"x. c #388AC6",
"c. c #39A2E3",
"v. c #408EC5",
"b. c #4B94C5",
"n. c #59A7DC",
"m. c #56A4D9",
"M. c #5CABE1",
"N. c #57A2E1",
"B. c #5CB1EC",
"V. c #5CB8ED",
"C. c #5DB7F2",
"Z. c #61B4EC",
"A. c #949599",
"S. c #A99796",
"D. c #879AA5",
"F. c #BA8FA2",
"G. c #BF9CB7",
"H. c #BE9AAA",
"J. c #8CA5BE",
"K. c #9FB5BA",
"L. c #99A1A5",
"P. c #A3B5B7",
"I. c #F39DBC",
"U. c #F98BB8",
"Y. c #F7ADBA",
"T. c #9ED2BB",
"R. c #95B4C9",
"E. c #ABB0C3",
"W. c #B4C6CF",
"Q. c #B4C8C9",
"!. c #B2C7D2",
"~. c #BCDDC8",
"^. c #C9DFD9",
"/. c #C2D7C9",
"(. c #F2C4D4",
"). c #C8E2D5",
"_. c #D4E3DB",
"`. c #F0F4DE",
"'. c #E9F6DD",
"]. c #DBDFE7",
"[. c #DDECE2",
"{. c #D7EAEE",
"}. c #DCF7F3",
"|. c #D5F8F8",
" X c #E4EEE5",
".X c #E1E6EF",
"XX c #EDF6E7",
"oX c #F3FAE6",
"OX c #FFFFED",
"+X c #F2FDEB",
"@X c #E9FFFF",
"#X c #E8FCF6",
"$X c #FEFEF3",
"%X c #FEFFFE",
"&X c #F7F8F8",
/* pixels */
"                                                                                                    ",
"                                                                                                    ",
"                                              o . . . .                                             ",
"                                            i i f > + + .                                           ",
"                                          r >.,.6.-.= O o X                                         ",
"                                          w *.=.v x c + X o                                         ",
"                                            g m 2 b o.s s @                                         ",
"                                            o.=.1.2.X.l k :                                         ",
"                                            %.$.>.*.%.k p                                           ",
"                                            l =.:.*.k -                                             ",
"                                            z ;.X.d - #                                             ",
"                                              M , & a n                                             ",
"                                                  d S.[.W.                                          ",
"                                                P.^.%X%X$X.X                                        ",
"                                                %X%XXX_.OX%X).                                      ",
"                                              '.%XOX_. X$X&XT.                                      ",
"                                              OX$XOX_.!.[.&X~.                                      ",
"                                              $XOX$X!.R.XX$XOX                                      ",
"                                              %XOXOXE.W. XXX%X                                      ",
"                                              %XOXOXK.R.|.%X%X/.                                    ",
"                                              %XOXOXQ.J.P.{ u.                                      ",
"                                              %XOX$X|.( & & 7                                       ",
"                                            D.%XoXOX|._  ...I                                       ",
"                                            a.#XoXOX@X} @.#.R                                       ",
"                                          @ a.}.oX+X@X[ +.#.Y                                       ",
"                                          ; s.|.oXoX@X[ +.#.Y                                       ",
"                                        t u d.}.XX`.%Xp. ...T                                       ",
"                                        s ; i.#X_. X}._ $...T                                       ",
"                                        p # D.%X#X|._ h <...L                                       ",
"                                        ; . ) L.A.k.= g >. .I                                       ",
"                                        y * . o 5 S * | &.j r                                       ",
"                                        w y & 5 w.c.H u u =                                         ",
"                                            9 5 t.B.v.S 2                                           ",
"                                              1 l.Z.C.x.W                                           ",
"                                              1 t.B.M.N.0.                                          ",
"                                              q 9.C.n.m.q.6                                         ",
"                                              q ~ V.n.y.Q B                                         ",
"                                              N J b.Z.m.w.A                                         ",
"                                                V 0.m.M.M.8.                                        ",
"                                                3 J r.7.b.e.                                        ",
"                                                < 0 E 5 Q q.4                                       ",
"                                                4 $ C ~ Q 7.N                                       ",
"                                                E V 0.n.b.Q 3 %                                     ",
"                                            G D 0 G / Z 9.g.! 2                                     ",
"                                          ] U.` O H.(.e < V J 6                                     ",
"                                        ) f.5.F ' F.5.G.h.< $                                       ",
"                                      %X%XD.z.#X{.j.A.W./ ^ `                                       ",
"                                    K I.Y.4.E.%X%X].E.4.P 3.U                                       ",
"                                      8 8                   e                                       ",
"                                                                                                    "
};
