/* XPM */
static char *_e6ef4dfb40b4c27d1a27aa7439b6e2cjh2okeNr9rcWA3a5[] = {
/* columns rows colors chars-per-pixel */
"32 32 235 2 ",
"   c None",
".  c #0A1B0F",
"X  c #0B1010",
"o  c #0B1314",
"O  c #091416",
"+  c #0E1815",
"@  c #0D1B16",
"#  c #0F1B16",
"$  c #0F1B17",
"%  c #0A1D14",
"&  c #0F1A19",
"*  c #101F15",
"=  c #0B230D",
"-  c #08260D",
";  c #09270F",
":  c #082B0C",
">  c #0F290F",
",  c #0B360E",
"<  c #0B2111",
"1  c #0C2112",
"2  c #0A2710",
"3  c #0C2710",
"4  c #0D2611",
"5  c #0D2711",
"6  c #0F2412",
"7  c #0F2712",
"8  c #0E2014",
"9  c #0E2015",
"0  c #0E2315",
"q  c #0F2A13",
"w  c #082E10",
"e  c #0D2814",
"r  c #0F2814",
"t  c #0F2F14",
"y  c #0F2E15",
"u  c #112617",
"i  c #102C13",
"p  c #112D14",
"a  c #112F14",
"s  c #102C16",
"d  c #102018",
"f  c #112118",
"g  c #1B251B",
"h  c #112B18",
"j  c #0B3110",
"k  c #0C3312",
"l  c #0F3514",
"z  c #0A3913",
"x  c #123116",
"c  c #143217",
"v  c #123E12",
"b  c #103814",
"n  c #113817",
"m  c #123A16",
"M  c #133B16",
"N  c #123D16",
"B  c #123119",
"V  c #163119",
"C  c #163319",
"Z  c #103518",
"A  c #103719",
"S  c #14341A",
"D  c #113A1A",
"F  c #143B1C",
"G  c #183B1C",
"H  c #0E1325",
"J  c #121823",
"K  c #141B2B",
"L  c #141D28",
"P  c #1C1E34",
"I  c #162627",
"U  c #16441D",
"Y  c #164B20",
"T  c #254A25",
"R  c #294028",
"E  c #2E422F",
"W  c #274D28",
"Q  c #225D2A",
"!  c #324731",
"~  c #364C32",
"^  c #285532",
"/  c #335539",
"(  c #33553F",
")  c #30593A",
"_  c #1D6921",
"`  c #23662A",
"'  c #25642B",
"]  c #237329",
"[  c #2C7D2B",
"{  c #356737",
"}  c #425C3D",
"|  c #252746",
" . c #242D44",
".. c #2C3D4E",
"X. c #333841",
"o. c #363A40",
"O. c #3A3C43",
"+. c #39356C",
"@. c #3E3D76",
"#. c #385445",
"$. c #385D47",
"%. c #386247",
"&. c #374465",
"*. c #39526B",
"=. c #444F4D",
"-. c #405C41",
";. c #404E52",
":. c #425355",
">. c #445255",
",. c #475958",
"<. c #48595D",
"1. c #4C5A5F",
"2. c #4C6C45",
"3. c #477F45",
"4. c #597E4C",
"5. c #496657",
"6. c #4E605D",
"7. c #556C51",
"8. c #526F5F",
"9. c #4A5A67",
"0. c #42536C",
"q. c #485773",
"w. c #547669",
"e. c #6F6B69",
"r. c #617878",
"t. c #238D1D",
"y. c #1B8022",
"u. c #1A8223",
"i. c #1A8522",
"p. c #1E8225",
"a. c #27882E",
"s. c #28882F",
"d. c #259025",
"f. c #30952B",
"g. c #38902F",
"h. c #3D972E",
"j. c #2D8631",
"k. c #358F3E",
"l. c #3C9836",
"z. c #38903B",
"x. c #558A3F",
"c. c #4F983F",
"v. c #4CAE3F",
"b. c #3B9241",
"n. c #3F9243",
"m. c #4A864A",
"M. c #5D864E",
"N. c #499149",
"B. c #4A9449",
"V. c #519B44",
"C. c #4A9C51",
"Z. c #529C58",
"A. c #5A9D5E",
"S. c #68845B",
"D. c #45A145",
"F. c #55A54C",
"G. c #55A54D",
"H. c #5FB64E",
"J. c #4CA150",
"K. c #51A550",
"L. c #65AE5F",
"P. c #5F9F61",
"I. c #6B9066",
"U. c #659E66",
"Y. c #6B8278",
"T. c #6B817F",
"R. c #67A668",
"E. c #70AF62",
"W. c #77B574",
"Q. c #68C45B",
"!. c #81B776",
"~. c #59588B",
"^. c #605F8B",
"/. c #4F6389",
"(. c #516389",
"). c #50788A",
"_. c #6D6B8F",
"`. c #7D7F83",
"'. c #797A95",
"]. c #6165A0",
"[. c #6C8989",
"{. c #728B8E",
"}. c #789494",
"|. c #8C8CA8",
" X c #8FC790",
".X c #9BCB93",
"XX c #9FCA97",
"oX c #94C59B",
"OX c #9ED194",
"+X c #A1CA90",
"@X c #A0C69C",
"#X c #A6CF9C",
"$X c #A6CE9D",
"%X c #92C9A0",
"&X c #A5CAA5",
"*X c #A9CDA2",
"=X c #A3CEAF",
"-X c #AADAA4",
";X c #B3D4AC",
":X c #B9D8AD",
">X c #BDD5B2",
",X c #BADAB7",
"<X c #BFDDB5",
"1X c #C6DEB6",
"2X c #C5D7BA",
"3X c #CBDDBE",
"4X c #A1A1C7",
"5X c #B1ACC3",
"6X c #B9C1C3",
"7X c #C6D2DA",
"8X c #CBE4C0",
"9X c #CAE6CD",
"0X c #D2E3C0",
"qX c #D4E6C5",
"wX c #D8E6C9",
"eX c #D5EACF",
"rX c #DAEAC9",
"tX c #DAECCF",
"yX c #DCEAD6",
"uX c #DCEDD5",
"iX c #E1EED8",
"pX c #E8F2D1",
"aX c #EBF3D3",
"sX c #EFF8DD",
"dX c #F0F3DE",
"fX c #D1D4E5",
"gX c #D6E7E9",
"hX c #EDF6E4",
"jX c #F1F7E1",
"kX c #F5F9E1",
"lX c #F4F8E4",
"zX c #FEFFE2",
"xX c #F1F1EB",
"cX c #FCFAEA",
"vX c #F6F8F5",
/* pixels */
"                                                                ",
"                                                                ",
"                                                                ",
"                                                                ",
"                                                                ",
"                                                                ",
"                                                                ",
"                                                                ",
"                                                                ",
"                      %.Y $.                                    ",
"                  5.{ J.K.b.` w.                                ",
"                ) I.8X*X1XpXOXz.Q ,.                            ",
"            #._ g.hX>X[ R.jXiX;X X6X`.Y.                        ",
"          6./ G.h.2XdX0XrXXXn.j.k.oXvX{.^                       ",
"          <.w E M.c.E.:XeXP.y.s.a.i.%X=XQ.] (                   ",
"          r.i z F } x.H.9XyXA.p.y.Z.tXzXsX-XC.' 8.              ",
"          T.0 7 S l V e.xXcX,X#XqXkX3XB.U.lX<Xt.f.W [.          ",
"          :.k n * u c =.gX5Xm.D.&XpXwX!.@XuXW.V.2.> >.          ",
"            K < N A $ o.7X|.g 7.G.v.+X#X.XL.3.! 7 = 1.          ",
"              0.I 1 a X.4X_.7 v R 4.l.d.N.-.x e 0 $ }.          ",
"                  *.L O.fX'.X q n a ~ S.T : . $ B - ;.          ",
"                      q.~.^.7 h 7 l U t 2 f t a % P 9.          ",
"                          &.O j A e 0 f n D - J @.              ",
"                              ..$ n G V , H +.                  ",
"                                ). .& o | ].                    ",
"                                    /.(.                        ",
"                                                                ",
"                                                                ",
"                                                                ",
"                                                                ",
"                                                                ",
"                                                                "
};
