/* XPM */
static char *_1907663bbb340e9e2e7f862b68acd86QZfXith8UwwpaAh5[] = {
/* columns rows colors chars-per-pixel */
"32 32 64 1 ",
"  c #391F09",
". c #3D210A",
"X c #43240A",
"o c #4B260A",
"O c #4D2A0B",
"+ c #51270B",
"@ c #532B0C",
"# c #592F0E",
"$ c #5A300E",
"% c #492C11",
"& c #572F10",
"* c #503015",
"= c #5D3513",
"- c #54361A",
"; c #5C3719",
": c #5F391A",
"> c #613A1B",
", c #573C22",
"< c #5A3C23",
"1 c #613F25",
"2 c #5F4124",
"3 c #644125",
"4 c #684224",
"5 c #6B4C35",
"6 c #69523F",
"7 c #6D5542",
"8 c #6B5649",
"9 c #715641",
"0 c #726357",
"q c #7B6655",
"w c #7E6957",
"e c #756458",
"r c #7D695B",
"t c #806958",
"y c #85776F",
"u c #83786F",
"i c #84786F",
"p c #867770",
"a c #877970",
"s c #8A7B71",
"d c #8A7C70",
"f c #8C7C70",
"g c #B5AFAD",
"h c #B6B2B1",
"j c #BAB7B5",
"k c #BCB7B6",
"l c #BBB8B7",
"z c #B9B9B8",
"x c #BCBABA",
"c c #B9BABC",
"v c #BBBCBC",
"b c #BDBCBC",
"n c #BDBFC3",
"m c #BEC1C5",
"M c #C0C1C3",
"N c #C1C3C7",
"B c #C3C5C7",
"V c #C4C5C7",
"C c #D7E1EB",
"Z c #D9E3EE",
"A c #DEEBF7",
"S c #DFEDF9",
"D c #E0EDFA",
"F c #E1EFFC",
/* pixels */
"&=;133333333434>:333333333333:=O",
"++8nmmmmmmmmmmNrrmmmmmmmmmmmc5@X",
"OoeADDDDDDDDDDFssFDDDDDDDDDDZ9+X",
"Oo0AAAAAAAAAAASssSAAAAAAAAASC9@X",
"Oo0AAAAAAAAAAASaiSAAAAAAAAASC6O.",
"OOeAAAAAAAAAAASauSAAAAAAAAASC6X ",
"@@eAAAAAAAAAAASfsSAAAAAAAAASC7+X",
"#@eAAAAAAAAAAASfdSAAAAAAAAASC9#o",
"@+eAAAAAAAAAAASfsSAAAAAAAAASC9@X",
"++eAAAAAAAAAAASfsSAAAAAAAAASC7@X",
"++eAAAAAAAAAAASsaSAAAAAAAAASC9@X",
"+o0AAAAAAAAAAASssSAAAAAAAAASC9@X",
"Oo0AAAAAAAAAAASspSAAAAAAAAASC9@X",
"Oo0AAAAAAAAAAASauSAAAAAAAAASC6O.",
"OOeADDDDDDDDDDFaaFDDDDDDDDDDZ6X ",
"@@7jjjklljjjjjlwqljjjjjjklljg5@X",
"#@7zzzxzzzzzxxbtwvzzzzzzxzzzh5$o",
"@+eADDDDDDDDDDFfsFDDDDDDDDDDZ9@X",
"++eAAAAAAAAAAASfsSAAAAAAAAASC9@X",
"+oeAAAAAAAAAAASsaSAAAAAAAAASC9@X",
"+o0AAAAAAAAAAASssSAAAAAAAAASC9@X",
"Oo0AAAAAAAAAAASsySAAAAAAAAASC9+X",
"OOeAAAAAAAAAAASauSAAAAAAAAASC6O.",
"OOeAAAAAAAAAAASaiSAAAAAAAAASC6o ",
"@+eAAAAAAAAAAASfsSAAAAAAAAASC9@X",
"#@eAAAAAAAAAAASfdSAAAAAAAAASC9#X",
"+OeAAAAAAAAAAASfsSAAAAAAAAASC7@X",
"++eAAAAAAAAAAASfsSAAAAAAAAASC9@X",
"Oo0AAAAAAAAAAASsaSAAAAAAAAASC9+X",
"+oeADDDDDDDDDDFssFDDDDDDDDDDZ9@X",
"oo8MNNNNNNNNNNVrrBNNNNNNNNNNx5+X",
"O*-2231111<,,<<--22222231111,*%."
};
