/* XPM */
static char *_ecbf2a5161a456ecd98e4d068f312f1xXv5r4E3MBY8VZ2f[] = {
/* columns rows colors chars-per-pixel */
"32 32 5 1 ",
"  c #450A00",
". c #630F00",
"X c #344920",
"o c #4E6C33",
"O c #AD1A00",
/* pixels */
"oooooooooooooooooooooooooooooooo",
"oooooooooooooooooooooooooooooooo",
"oooooooooooooooooooooooooooooooo",
"oooooooooooXooooooXXXooooooooooo",
"oooooXooooooXooooooooooooooXoooo",
"XXooooooooooooooooooooooooXooooo",
"XooooooooooooooooooooooooooooXXo",
"oooooooooooooooooooooooooooooooo",
" ooooooooooooooooooooooooooooooo",
". ooooooo  ooooooo  ooooooo  ooo",
".. ooooo .. ooooo .. ooooo .. oo",
"... ooo .... ooo .... ooo ....  ",
"....   ......   ......   .......",
"................................",
"................................",
"OOO........................OOOOO",
"...O.............OOOO.....O.....",
".................O..............",
"................O.......O.......",
"OO....................OO........",
".O........O..........OO.........",
".......OOO....................OO",
"........................OO....O.",
"..............OO.......OO....OO.",
"...............OO...............",
"................................",
"....................OO..........",
"..............O......OO.........",
"OOO........OOOO.......OO........",
"..OO......OO.................OOO",
"...OO......................OOO..",
"....OO.....................O...."
};
