/* XPM */
static char *_e43d8565a5d4c58b22808165c1da4acSq6LDvx566mvEMDe[] = {
/* columns rows colors chars-per-pixel */
"32 32 50 1 ",
"  c #000101",
". c #010102",
"X c #030406",
"o c #020304",
"O c #030607",
"+ c #020405",
"@ c black",
"# c #000001",
"$ c #010101",
"% c #010202",
"& c #010203",
"* c #020303",
"= c #030506",
"- c #030507",
"; c #010303",
": c #030405",
"> c #040608",
", c #070B0D",
"< c #060A0C",
"1 c #020305",
"2 c #040709",
"3 c #050809",
"4 c #040708",
"5 c #05090A",
"6 c #070C0E",
"7 c #05080A",
"8 c #040607",
"9 c #05090B",
"0 c #080E11",
"q c #090F11",
"w c #080E10",
"e c #06090B",
"r c #0D1619",
"t c #0D1518",
"y c #0A1013",
"u c #090F12",
"i c #090E11",
"p c #0A1114",
"a c #080D0F",
"s c #0C1418",
"d c #0E171A",
"f c #0B1215",
"g c #080D10",
"h c #0B1316",
"j c #020404",
"k c #020406",
"l c #030505",
"z c #091012",
"x c #070B0E",
"c c white",
/* pixels */
"    ..XoO+@# #@@@@###. @# $$%&.@",
" ##...&%+.@# #@@@@ @# #@  .*+&.@",
" # &&&. $# .%#@@@@#@  @@@ &+o&.@",
" # +=+&@@@.-OX;@@###  &$....%&.@",
"@@#*oo&@@@%ooo&@@#@## &$   $.. @",
"@#  .o*&%$% .:=o*%%#@@&===+ $% @",
"#.&.+>X+ooX.+,<+X-1 @ &2345&oo. ",
"@ %$++&++1X$=67oX>o#@#@;o +*o&.#",
" .%$+=o+&%& 89+.&Xo#@  %&#&%oo% ",
"%$%$XX.@# % :o.# *o@@  # # #%%..",
"@@ .%$ @@@@ $@#@ $ @@@@@@@$%..#@",
"*o+4Oo&@$  o @##:X+X>&#@@.>0q6>.",
">=XOO+.@   %&#@#+:=9we7oO2qrty6+",
"24-=O-&@#.&&o.&.X--9uip4asdfiqi=",
"97>===&@#%&&&..$===>O3g=6hg:-66:",
"o&&%.$#@@  $ @@@%$ @@$%@o=*#%o*%",
"*2>&oo.#.$.@@@ &%.&#.o++o%o #&+&",
".O7&&+% ..%@#@#$.&1..oo1oo%##=- ",
"  o&o+.  . @#@# .%:&&oo&1+&$#oo ",
"@.>j29: ..#@@### .+;j;&=>Xk$    ",
"@$=&=>=%#@@@@@@#@@.$.%.oo*&#  #@",
"@@%+l8=.$  . @@@@@#@@.o #..### @",
"  +<<00l>2=&& #@## .&O7%$o1&.. #",
" .o3<qy=572+& #@# &oX77.+4+.   #",
"#. o76g=744>o @@@.%&=28*<w+.  .@",
"@ ##%>7%=4OO& @@@ .*=o=o6a*. ..@",
"#@@@@$. %%%.@@@@@@@  #&*j+%@@ @@",
"&.%$$&oo>>>*% @@@# @#o,zaqe#.o%&",
"... . .o=22*. @@@##@#%=59ax..&&&",
"###@ .&+O>=.  #@@@#@# # &87&oo& ",
"## @ o+79O+   #@@@@@#  ##.o.*o.#",
"#@#@@.&oo&.@@@@@@@@@@ @@@@  $$@#"
};
