/* XPM */
static char *bc5eb631a3c9491bb4b275b51d587987xhCPRhX2C9NG72DK[] = {
/* columns rows colors chars-per-pixel */
"32 32 4 1 ",
"  c #490B00",
". c #630F00",
"X c #6C1000",
"o c #AD1A00",
/* pixels */
"................................",
"................................",
"................................",
"................................",
"..oo....oo...................oo.",
"oo.......o........ooooo........o",
".........oo......oo...oo........",
"..........o.....oo..............",
"................................",
"...o............................",
"ooo.............................",
".........................ooo..oo",
"............o............o.oooo.",
"............oo..................",
".............ooo................",
".....oo........ooo..............",
"....oo.....................ooo..",
".oooo.....................oo....",
"oo........................o.....",
"................................",
"......................o.........",
"......o.........o..oooooo.......",
".....o......o....ooo............",
"...........o....................",
"..........oo....................",
"..........o.....................",
"                                ",
"  X                X        X   ",
"   XX              X       X    ",
"                    X           ",
"                                ",
"                                "
};
