/* XPM */
static char *_4f7a90113ea444aab9e789f22ac7f292IKd32CYbnlB3Wzl[] = {
/* columns rows colors chars-per-pixel */
"50 50 221 2 ",
"   c None",
".  c #010204",
"X  c #020B02",
"o  c #05060B",
"O  c #050D0B",
"+  c #0A0D09",
"@  c #09090B",
"#  c #021403",
"$  c #031B04",
"%  c #041C0A",
"&  c #0B190D",
"*  c #090615",
"=  c #0B0C12",
"-  c #08041B",
";  c #110E16",
":  c #0C1313",
">  c #0E1D13",
",  c #0F1A19",
"<  c #121719",
"1  c #022505",
"2  c #05230B",
"3  c #042B0A",
"4  c #0C2D0D",
"5  c #072809",
"6  c #10210F",
"7  c #013203",
"8  c #05350C",
"9  c #0C3B0B",
"0  c #0C2311",
"q  c #0D2C14",
"w  c #112D15",
"e  c #132D1B",
"r  c #152418",
"t  c #0F3313",
"y  c #0D3D14",
"u  c #0F3418",
"i  c #063714",
"p  c #133315",
"a  c #13341C",
"s  c #143C1A",
"d  c #193E1D",
"f  c #153916",
"g  c #0B0928",
"h  c #140F2E",
"j  c #181729",
"k  c #161936",
"l  c #0A0732",
"z  c #1B2627",
"x  c #1D3122",
"c  c #1F3C21",
"v  c #232729",
"b  c #2A2D37",
"n  c #293737",
"m  c #383938",
"M  c #433C3E",
"N  c #054208",
"B  c #005906",
"V  c #114414",
"C  c #15451C",
"Z  c #194C1C",
"A  c #154B1B",
"S  c #0F5316",
"D  c #13531B",
"F  c #155917",
"G  c #0D4818",
"H  c #006302",
"J  c #026A07",
"K  c #057909",
"L  c #116112",
"P  c #067414",
"I  c #137B1A",
"U  c #107C17",
"Y  c #184821",
"T  c #1D5421",
"R  c #245128",
"E  c #127621",
"W  c #2E7738",
"Q  c #42523F",
"!  c #50443A",
"~  c #437939",
"^  c #1A1548",
"/  c #1E2F48",
"(  c #322640",
")  c #353743",
"_  c #3B3956",
"`  c #2C3058",
"'  c #302F6E",
"]  c #483F6E",
"[  c #443A77",
"{  c #384448",
"}  c #3E4553",
"|  c #40434C",
" . c #495749",
".. c #434D59",
"X. c #485458",
"o. c #675E5F",
"O. c #516A5C",
"+. c #656459",
"@. c #504A6F",
"#. c #555567",
"$. c #5E567B",
"%. c #546765",
"&. c #5D796E",
"*. c #516E75",
"=. c #6D6C70",
"-. c #0E8B10",
";. c #178517",
":. c #048A0A",
">. c #248917",
",. c #229617",
"<. c #25AA19",
"1. c #1A8625",
"2. c #169327",
"3. c #23842A",
"4. c #298C2F",
"5. c #338E2E",
"6. c #2B972B",
"7. c #35972B",
"8. c #2C8A32",
"9. c #388638",
"0. c #319736",
"q. c #3BA334",
"w. c #2FB832",
"e. c #469A38",
"r. c #43AA38",
"t. c #3BB740",
"y. c #479B46",
"u. c #519458",
"i. c #619556",
"p. c #718A52",
"a. c #47A94D",
"s. c #48B646",
"d. c #59B44B",
"f. c #56A658",
"g. c #55BA58",
"h. c #63BB58",
"j. c #66B54D",
"k. c #7F9775",
"l. c #70886A",
"z. c #5FAF6C",
"x. c #63A96C",
"c. c #74A473",
"v. c #78A673",
"b. c #6DB071",
"n. c #67C74B",
"m. c #8C9F76",
"M. c #80BE68",
"N. c #90BE7C",
"B. c #84B176",
"V. c #80D04F",
"C. c #8BCA72",
"Z. c #373481",
"A. c #465C88",
"S. c #505C8E",
"D. c #49508F",
"F. c #665685",
"G. c #476888",
"H. c #6A7E89",
"J. c #5652A5",
"K. c #7D7FCA",
"L. c #6C6BC7",
"P. c #5E8C9E",
"I. c #6E8580",
"U. c #7C8E8F",
"Y. c #7B9193",
"T. c #6087A3",
"R. c #7FB6A2",
"E. c #7381C1",
"W. c #888E9B",
"Q. c #8BBC85",
"!. c #95BC97",
"~. c #8CBE95",
"^. c #9796B1",
"/. c #94ABA6",
"(. c #98C98A",
"). c #8EC290",
"_. c #8CC183",
"`. c #A0C08D",
"'. c #A3C698",
"]. c #B1D39F",
"[. c #AADC9C",
"{. c #A6D5A2",
"}. c #BDDCAD",
"|. c #B2D4A2",
" X c #B4D0AF",
".X c #CDDFAF",
"XX c #C1D8BE",
"oX c #CAE5B6",
"OX c #CDF3BE",
"+X c #9697C9",
"@X c #818CC5",
"#X c #90A6D1",
"$X c #ABA8C7",
"%X c #C8BDC0",
"&X c #A1C1DD",
"*X c #B0CED0",
"=X c #B7E2C1",
"-X c #D9DEC3",
";X c #D9E5C9",
":X c #DDEAD4",
">X c #C6E5C3",
",X c #EDF2DC",
"<X c #EDF1D3",
"1X c #FFFEDE",
"2X c #F8FAD5",
"3X c #D1D1E3",
"4X c #D9E0EF",
"5X c #D9E2F7",
"6X c #DCFBFB",
"7X c #E4EAE2",
"8X c #E5F7EA",
"9X c #FEFEE5",
"0X c #F5FBEB",
"qX c #FEFEEC",
"wX c #F4F8E1",
"eX c #E9FDFB",
"rX c #FDFEF4",
"tX c #F6FCFF",
"yX c #FEFFFD",
"uX c #F3FAF5",
"iX c #F1ECF3",
/* pixels */
"                                                                                                    ",
"                                                                                                    ",
"                                                                                                    ",
"                                                                                                    ",
"                                                                                                    ",
"                                                                                                    ",
"                                                                                                    ",
"                                                                                                    ",
"                                                                                                    ",
"                                                                                                    ",
"                                                                                                    ",
"                                                                                                    ",
"                                                                                                    ",
"                                      /.                                                            ",
"                                  /.n > n Y.                                                        ",
"                                X.1 P 2.E 3 )                                                       ",
"                            %.0 F s.a.y.y.6.J p =.                                                  ",
"                          { $ i.OX0X9XwX,X}.h.1.N z &.                                              ",
"                      ) q L C.rX,Xc.9.Q.9X9X0XoXt.:.R ( &.                                          ",
"                  b e S >.e.0XrX'.B H W :XqXrXuX;X{.8X3X=.m O.                                      ",
"                %.v f.w.;.e.0XrX<X`.N.|.9X;X).y.u.f.~.yXyX7X=.n                                     ",
"                X.+  .v.j.>.c.-XrXrX9XqX}.1.J I I U P b.rXuXP.H 7 |                                 ",
"                #.% 8 v +.C.7.>.B.:XwX0X!.H 1.8.8.8.4.K z.*XR.n.w.B x {                             ",
"                ..X D i % Q =.M.,.-.f.=X7Xv.P 3.8.8.3.P x.uX9X9X[.g.1.S n I.                        ",
"                  j 4 y y 8 s m p.V.b.8XqXrX!.3.U U 1.~.0X1X1X9XqX,X{.a.;.N m U.                    ",
"                  z + 0 s d u 1 r ! %XyX1XqXrX>X}.].oXrX<XXXf.9. X9XrX(.;.6.;.V X.                  ",
"                } % D 0 + e d c C # W.yX9XiXx.7.'.yXrX1XwXu.J H c.qXyX_.K e.h.~ X }                 ",
"                ..X Z A a = : e s # W.6X4XF.W s.;.x.;X9XrX.X(.'.7XrX{.4.d.k.m 2 X X.                ",
"                *.. X t s Z u = < O /.eX5X` + +.Q.r.6.d.;XqXrXyX;Xh.q.i.l.r % V # _                 ",
"                  G.k o % y Z C 0 o ) *XtX$.# 1 b k.h.<.e.9.5.7.q.b.l.x O 8 w : = H.                ",
"                      S.k . O 6 C > $.+X+X_ % F 9 $ M m.d.-.K 6.c. .> 3 u w : o v *X                ",
"                          G.k o 6 # ^.tX$Xk . f 9 p 4 r  .i.C.i.v 7 7 w : ; r V % ..                ",
"                              A.h . #.5XeX@.. , > Z V 3 2 m o.Z 7 4 : o : Y C q . {                 ",
"                                  A.l [ #X] 1 s , & 0 G T G 1 8 0 ; 6 t a a # . h H.                ",
"                                      ' ' h $ s s e > : a s : : ; Y Y V 2 . g Z.@X                  ",
"                                          ` - $ 8 y C q : = , D F u 2 . * [ L.                      ",
"                                              b * X 4 F C x d S y . * ' J.                          ",
"                                                T./ * % 0 R > X X ^ J.                              ",
"                                                      ^ * = . j D.K.                                ",
"                                                        S.g ` E.&X                                  ",
"                                                            #X                                      ",
"                                                                                                    ",
"                                                                                                    ",
"                                                                                                    ",
"                                                                                                    ",
"                                                                                                    ",
"                                                                                                    ",
"                                                                                                    ",
"                                                                                                    ",
"                                                                                                    "
};
