/* XPM */
static char *f903cd378b274e33c5fa7823a96a89cc3Rc60kN19sGgasdv[] = {
/* columns rows colors chars-per-pixel */
"50 50 221 2 ",
"   c #040103",
".  c #090505",
"X  c #0B0806",
"o  c #040208",
"O  c #0D040C",
"+  c #0E090D",
"@  c #120403",
"#  c #190406",
"$  c #110A07",
"%  c #14050D",
"&  c #1A040A",
"*  c #12090A",
"=  c #1B0A07",
"-  c #1F1004",
";  c #0E0713",
":  c #0E0912",
">  c #020013",
",  c #150516",
"<  c #1F1012",
"1  c #210E04",
"2  c #240B08",
"3  c #2A0D0B",
"4  c #2D140B",
"5  c #201004",
"6  c #32130E",
"7  c #311909",
"8  c #2C0E10",
"9  c #350F15",
"0  c #241314",
"q  c #2C1613",
"w  c #2C1915",
"e  c #2C1B19",
"r  c #251A19",
"t  c #331413",
"y  c #391715",
"u  c #331A14",
"i  c #3A1914",
"p  c #38121A",
"a  c #341A19",
"s  c #3B1C1A",
"d  c #361118",
"f  c #3D241C",
"g  c #3B2621",
"h  c #501C0D",
"j  c #421C1B",
"k  c #451A10",
"l  c #5B1C18",
"z  c #56241B",
"x  c #582419",
"c  c #562617",
"v  c #782C0F",
"b  c #622717",
"n  c #752F11",
"m  c #732E1B",
"M  c #7D2F1F",
"N  c #7D3012",
"B  c #7B311B",
"V  c #73341E",
"C  c #6F2508",
"Z  c #402926",
"A  c #5E2122",
"S  c #562622",
"D  c #44312E",
"F  c #4C3835",
"G  c #7D2C21",
"H  c #7B3422",
"J  c #68453D",
"K  c #63423A",
"L  c #674542",
"P  c #6A4442",
"I  c #77504A",
"U  c #83341E",
"Y  c #8D321A",
"T  c #8F3E1F",
"R  c #863416",
"E  c #91381F",
"W  c #822B15",
"Q  c #BF3E13",
"!  c #BF3E19",
"~  c #B33914",
"^  c #822C20",
"/  c #863522",
"(  c #893B24",
")  c #853B26",
"_  c #953D26",
"`  c #983D28",
"'  c #C13F16",
"]  c #C03F1C",
"[  c #AF431C",
"{  c #BF4114",
"}  c #B5421F",
"|  c #BB571B",
" . c #9A4228",
".. c #8B4933",
"X. c #BC4423",
"o. c #B44926",
"O. c #BC4B25",
"+. c #B54929",
"@. c #BE4B29",
"#. c #B44327",
"$. c #BD532C",
"%. c #BB5421",
"&. c #AE4B30",
"*. c #B44731",
"=. c #C04115",
"-. c #C4451C",
";. c #C9451C",
":. c #C44C1D",
">. c #CA4B1E",
",. c #C84012",
"<. c #D34A17",
"1. c #CC511E",
"2. c #C3531E",
"3. c #D7521E",
"4. c #CB460D",
"5. c #C64D26",
"6. c #C94F25",
"7. c #C64D29",
"8. c #C94C29",
"9. c #C54727",
"0. c #D44F2C",
"q. c #D74E26",
"w. c #C65125",
"e. c #CC5326",
"r. c #C5502A",
"t. c #CB5229",
"y. c #CB5A2E",
"u. c #C7582E",
"i. c #D55527",
"p. c #D95527",
"a. c #D45826",
"s. c #D45229",
"d. c #DB552A",
"f. c #D4592A",
"g. c #DA5B2D",
"h. c #D85824",
"j. c #CA4C31",
"k. c #D74E33",
"l. c #CB5A31",
"z. c #C85734",
"x. c #D15434",
"c. c #DD5A32",
"v. c #D45634",
"b. c #E45A25",
"n. c #E35A2B",
"m. c #E55827",
"M. c #E45B36",
"N. c #F45F31",
"B. c #DC6337",
"V. c #EC6036",
"C. c #F26132",
"Z. c #8F5F4E",
"A. c #995946",
"S. c #966A5D",
"D. c #986A5C",
"F. c #94675A",
"G. c #8F6459",
"H. c #A96E5B",
"J. c #8D6E63",
"K. c #8F6664",
"L. c #936C61",
"P. c #996F66",
"I. c #9B7368",
"U. c #9D7D73",
"Y. c #897069",
"T. c #AA7E6E",
"R. c #B17E6D",
"E. c #D46D44",
"W. c #D56A4D",
"Q. c #DD6B48",
"!. c #DA7656",
"~. c #DA7758",
"^. c #DA7958",
"/. c #CA6A4F",
"(. c #E36E4F",
"). c #E47757",
"_. c #DC856F",
"`. c #E68D69",
"'. c #ED8A6C",
"]. c #F4906B",
"[. c #E68B75",
"{. c #E0987F",
"}. c #FA9678",
"|. c #B79387",
" X c #D09D8B",
".X c #CD9C92",
"XX c #D19C94",
"oX c #C59584",
"OX c #F49C86",
"+X c #F59F89",
"@X c #D6A590",
"#X c #F5A185",
"$X c #F5A089",
"%X c #F6A189",
"&X c #F9A68B",
"*X c #F9AE9C",
"=X c #F7B096",
"-X c #FDB09F",
";X c #FDB19D",
":X c #FBB29F",
">X c #FEB99C",
",X c #E7A891",
"<X c #D9AEA0",
"1X c #FCAEA0",
"2X c #E0B5A2",
"3X c #FDB2A0",
"4X c #F4BBA5",
"5X c #F4BFA9",
"6X c #FFBFAB",
"7X c #F3BDB3",
"8X c #EDC5AE",
"9X c #F4C1AA",
"0X c #FFC3AE",
"qX c #FFC2A3",
"wX c #EECCBE",
"eX c #FFC3B0",
"rX c #F8CBB6",
"tX c #FCD1B9",
"yX c #FCD1B7",
"uX c #F6D8C1",
"iX c #FCE7D1",
/* pixels */
"1X3X3X3X-X-X-X-X-X-X-X-X-X-X-X:X:X-X-X*X*X*X*X*X3X-X3X:X,XL.s $ Z R.;X-X3X-X-X-X-X-X-X-X-X-X-X-X-X-X",
"OX$X$X$X$X$X$X$X$X$X$X$X+X+X+X+X+X$X$X$X+XOXOXOX+X$X&X$X{.Z.q   e H.&X#X%X$X$X$X$X$X$X#X#X#X#X#X#X$X",
"!.^.!.!.~.~.~.~.~.~.~.~.~.~.~.~.~.~.~.~.~.~.!.!.!.!.).~./...4 . a A.).!.~.~.~.~.~.~.~.!.!.!.!.!.!.^.",
"7.w.w.w.r.r.r.r.r.r.r.r.r.r.r.r.r.r.r.r.r.r.r.7.5.5.8.7.+.H 7 $ i _ 8.7.7.r.r.r.r.r.r.7.7.7.r.r.7.r.",
"=.-.-.-.-.-.-.-.-.-.-.-.-.-.-.-.-.-.-.-.-.-.-.-.-.=.;.=.} m 4 X u Y ;.;.-.-.-.-.-.-.-.-.-.-.-.-.=.-.",
";.;.;.-.-.-.-.-.-.-.-.-.-.-.-.-.-.-.-.-.-.-.-.-.-.-.-.=.[ n 6 * y Y ;.-.;.-.-.-.-.-.-.-.-.-.-.-.-.6.",
"6.6.8.8.6.6.6.6.6.6.6.6.6.6.6.6.6.6.6.6.6.6.6.6.w.6.6.5.o.B 6 % y T w.6.6.6.6.6.6.6.6.6.6.6.t.6.5.t.",
"5.w.j.j.5.5.5.5.5.5.5.5.5.5.5.5.5.5.5.5.5.5.6.5.5.6.6.5.+.H t % i ( w.w.6.6.6.6.5.5.5.5.5.5.6.5.5.t.",
":.%.7.8.7.5.7.7.7.7.7.7.7.7.7.5.5.5.5.5.7.7.5.5.5.7.6.5.+.H t + u ( 7.5.5.5.5.5.5.5.5.5.5.5.7.5.5.r.",
":.| 2.6.8.8.8.8.8.8.8.8.8.8.8.8.8.8.8.8.8.8.8.8.8.7.6.>.O.H t + u E 6.6.8.7.7.7.7.7.7.7.7.7.8.7.7.r.",
"n.n.n.n.n.n.n.n.n.n.n.n.n.n.n.n.n.n.n.n.n.n.n.n.n.n.m.b.f.( d % i  .n.b.b.n.n.n.n.n.n.n.n.n.n.n.n.n.",
"k.v.f.s.i.i.i.i.i.i.i.i.i.i.i.i.i.i.i.i.i.i.i.i.i.i.h.a.$.) 9 & i  .f.a.i.a.a.a.a.a.a.i.i.i.a.a.a.a.",
"_ _ _ _ _ _ _ _ _ _ _ _ _ _ _ _ _ _ _ _ _ _ _ _ _ _ _ _ ( b 9 & t m ` _ _ _ _ _ _ _ _ _ _ _ _ _ _  .",
"6 6 6 6 6 6 6 6 6 6 6 6 6 6 6 t y i i t 6 6 6 6 6 6 6 4 4 2 @   X 2 6 6 6 4 6 6 6 6 t 6 6 6 6 6 6 t ",
"                                o o o                                                               ",
"0 r r r w q q q q q q q w a a < * O % 0 q u w q q q w e e e u u e e e w w w w w w q q w w w w w w e ",
"K.Y.J.L.S.D.D.D.D.D.D.D.S.I.P.L w # a P G.P.D.D.D.D.S.S.L.S.S.S.S.L.L.S.S.S.D.D.S.F.F.S.S.S.D.S.S.D.",
"7X8X7X5X5X5X5X5X5X5X5X5X9XuXwXU.g . g U.2XrX9X5X5X5X5X5X5X5X5X5X5X5X5X5X9X9X9X5X5X5X4X4X4X5X9X9X9X9X",
"0X0X0X0X0XeX0X0X0X0XeX0X0XtXyXT.f . g T.4XtX0X0XeX0X0X0X0X0X0X0X0X0X0X0X0X0X0X0X0X0X0X6X6X0X0X0X0X0X",
"`.`.'.'.[.[.[.[.[.[.[.[.'.}.].A.i . a A._.}.[.[.[.[.[.[.[.[.[.[.[.[.[.[.[.[.[.[.[.[.[.[.[.[.[.[.[.[.",
"z.l.x.x.l.l.l.l.l.l.y.l.z.B.g.( q O t ( u.B.l.l.l.l.l.l.l.l.l.l.l.l.l.l.l.l.l.l.l.l.l.l.l.l.l.y.u.l.",
"Q { ] ] ' ' ' ' =.=.=.{ X.<.4.N q ; d W ! <.=.=.' ' ' =.=.=.=.=.=.=.' { { { { =.{ { { =.=.=.=.{ Q { ",
":.:.5.5.8.8.8.8.8.8.8.8.8.p.<.R q ; t U 9.k.8.8.8.8.8.8.8.8.8.8.8.8.8.8.8.8.8.8.8.8.8.8.8.8.8.8.9.8.",
">.6.5.7.8.8.8.8.8.8.8.8.5.p.3.R q O t U 9.d.8.8.8.8.8.8.8.8.8.8.8.8.8.8.8.8.8.8.8.8.8.8.8.8.8.8.8.8.",
"5.6.8.8.6.6.6.6.6.6.6.6.7.i.e.U q O t U O.p.e.6.6.6.6.6.6.6.6.6.6.6.6.6.6.6.6.6.6.6.6.6.6.6.6.6.6.t.",
"9.6.8.8.6.6.6.6.6.6.6.w.$.y.e.H q , p / O.i.e.6.6.6.6.6.6.6.6.6.6.6.6.6.6.6.6.6.6.6.6.6.6.6.e.6.5.e.",
"6.6.6.6.6.6.6.6.6.6.6.6.5.a.e.U t , p / 5.p.6.6.6.6.6.6.6.6.6.6.6.6.6.6.6.6.6.6.6.6.6.6.6.6.e.6.6.e.",
">.1.1.6.6.8.6.6.6.6.6.6.q.m.3.R t % t U 5.d.6.6.6.6.6.6.6.6.6.6.6.6.6.6.6.6.6.6.6.6.6.6.6.6.t.8.6.t.",
"p.g.c.M.n.n.n.n.n.n.n.n.c.C.m.T t ; i _ f.N.n.n.n.n.n.n.n.n.n.n.n.n.n.n.n.n.n.n.n.n.n.n.n.n.n.n.n.n.",
"#.+.*.*.+.+.+.+.+.+.+.+.&.$.O.V q ; t B o.7.+.+.+.+.+.+.+.+.+.+.+.+.+.+.+.+.+.+.+.+.+.+.+.+.+.+.o.+.",
"l A A A x x x x x x x x c b b i < , 8 k x x x x x x x x x x x x x x x x x x x x x x x z z x z z S S ",
". . . .                   . .         .                                               . * * * X     ",
". . . . . . . . . . . . . . . . X X X . . . . . . . . . . . . . . . . . . . . . . . . .       . . . ",
"L P P P J J J J J J J J J J J J J J J J J J J J J J J J J J J J J J J J J J J J J J K F r . = Z P I ",
".XXXXXXX X X X X X X X X X X X X X X X X X X X X X X X X X X X X X X X X X X X X X@XoXI.D @ 4 I .X<X",
"tXtXtXtXtXyXtXtXtXtXtXtXtXtXtXtXtXtXtXtXtXtXtXtXtXtXtXtXtXtXtXtXtXtXtXtXtXtXtXtXtXuX8X|.F . 3 J.uXiX",
"=X=X=X=X=X=X=X=X=X=X=X=X=X=X=X=X=X=X=X=X=X=X=X=X=X=X=X=X=X=X=X=X=X=X=X=X=X=X=X=X=X>X,XR.D . 8 Z.=XqX",
"E.E.E.W.W.W.W.W.W.W.W.W.W.W.W.W.W.W.W.W.W.W.W.W.W.W.W.W.W.W.W.W.W.W.W.W.W.W.W.W.W.(./...g O 3 ) Q.).",
"-.:.9.9.-.-.-.-.-.-.-.-.-.-.-.-.-.-.-.-.-.-.-.-.-.-.-.-.-.-.-.-.-.-.-.-.-.-.-.9.9.>.} ( s ; 2 v 9.s.",
"Q =.! ! Q Q Q Q Q Q Q Q Q Q Q Q Q Q Q Q Q Q Q Q Q Q Q Q Q Q Q Q Q Q Q Q Q Q ' =.' ,.~ Y s ; 1 C =.6.",
">.>.6.8.6.6.6.6.6.6.6.6.6.6.6.6.6.6.6.6.6.6.6.6.6.6.6.6.6.6.6.6.6.6.6.8.8.8.8.8.8.0.X._ j + - n s.g.",
">.1.6.8.8.8.8.8.8.8.8.8.8.8.8.8.8.8.8.8.8.8.8.8.8.8.8.8.8.8.8.8.8.t.8.8.8.8.t.8.7.s.@._ s + - n s.c.",
">.>.5.7.5.5.5.5.5.5.5.5.5.5.5.5.5.5.5.5.5.5.5.5.5.5.5.5.5.5.5.5.5.5.5.7.8.8.7.7.5.s.@._ s + 1 n t.c.",
">.:.5.7.7.7.7.7.7.7.7.7.7.7.7.7.7.7.7.7.7.7.7.7.7.7.7.7.7.7.7.7.5.5.7.7.8.7.5.9.5.s.@._ s + - n 6.g.",
"q.3.s.s.s.s.s.s.s.s.s.s.s.s.s.s.s.s.s.s.s.s.s.s.s.s.s.s.s.s.s.s.i.i.s.s.s.s.s.s.s.d.8.` j + 1 N p.M.",
"q.p.d.d.p.p.p.p.p.p.p.p.p.p.p.p.p.p.p.p.p.p.p.p.p.p.p.p.p.p.p.p.p.p.p.p.i.i.i.p.p.n.t. .j * 1 N d.V.",
"8.0.k.x.t.e.e.e.e.e.e.e.e.e.e.e.e.e.e.e.e.e.e.e.e.e.e.e.t.e.e.e.t.t.t.t.t.t.t.t.t.p.@...s * 2 N s.M.",
"G ^ G M B B B B B B B B B B B B B B B B B B B B B B B B B B B B B B B B B B B B B U m c 0 O = h U ( ",
"@ @ @ @ # & # # # # # & & & & & & # # # # # # # & # # # # # & & # # # & & & & & & & & # O > o # # = ",
"  o o o o               o o o o     . . . .     o o         o o           o o   o o . @ , , , & O o "
};
