/* XPM */
static char *_288adedb1b24ab499b6db8b7c04cce2[] = {
/* columns rows colors chars-per-pixel */
"32 32 3 1 ",
"  c black",
". c #9BADB7",
"X c white",
/* pixels */
"XXXXXXXXXXXXXXXXXXXX XXXXXXXXXXX",
".................... ...........",
".................... ...........",
".................... ...........",
".................... ...........",
".................... ...........",
".................... ...........",
"                                ",
"XXXXXXXXXXXXXXX XXXXXXXXXXXXXXXX",
"............... ................",
"............... ................",
"............... ................",
"............... ................",
"............... ................",
"............... ................",
"............... ................",
"............... ................",
"............... ................",
"............... ................",
"                                ",
"XXXXXXXXXXXXXXXXXXXXXXX XXXXXXXX",
"....................... ........",
"....................... ........",
"....................... ........",
"....................... ........",
"....................... ........",
"....................... ........",
"....................... ........",
"....................... ........",
"....................... ........",
"....................... ........",
"                                "
};
