/* XPM */
static char *_600e0c339654df28aea85805ac1b5c1[] = {
/* columns rows colors chars-per-pixel */
"32 32 3 1 ",
"  c #6ABE30",
". c #37946E",
"X c #99E550",
/* pixels */
"                        .       ",
" .    .    .             .      ",
"  .    .    .      .    X.      ",
" X.   X.   X.       .    X      ",
"  X    X    X      X.      .    ",
"        .       .   X       .   ",
"         .       .         X.   ",
"  .     X.      X.          X   ",
"   .     X  .    X    .         ",
"  X.         .         .   .    ",
".  X    .   X.        X.    .   ",
" .       .   X    .    X   X.   ",
"X.      X.         .        X   ",
" X       X  .     X.          . ",
"   .         .     X           .",
"    .       X.            .   X.",
"   X.        X             .   X",
"    X   .         .       X.    ",
"         .    .    .   .   X    ",
"        X.     .  X.    .       ",
"         X    X.   X   X.       ",
"    .      .   X        X .     ",
"     .      .     .        .    ",
" .  X.     X.      .      X.    ",
"  .  X  .   X     X.       X  . ",
" X.      .         X           .",
"  X     X.                    X.",
"    .    X   .   .   .    .    X",
"     .        .   .   .    .    ",
"    X.   .   X.  X.  X.   X.  . ",
"     X    .   X   X   X    X   .",
"         X.                   X."
};
