/* XPM */
static char *_cd12bc8598440de99412e56ba5d108evcJjOjgEbHCxmct0[] = {
/* columns rows colors chars-per-pixel */
"32 32 142 2 ",
"   c None",
".  c #050206",
"X  c #0A0608",
"o  c #0B080B",
"O  c #13020A",
"+  c #12040B",
"@  c #160D0D",
"#  c #26070E",
"$  c #2C090F",
"%  c #37050C",
"&  c #230C16",
"*  c #2E0810",
"=  c #1D132E",
"-  c #520107",
";  c #5C030D",
":  c #530612",
">  c #5A181D",
",  c #6B0911",
"<  c #680B18",
"1  c #730C15",
"2  c #75111B",
"3  c #761618",
"4  c #711D22",
"5  c #472337",
"6  c #69203C",
"7  c #78383E",
"8  c #1B2A44",
"9  c #1F2B46",
"0  c #11284E",
"q  c #102D4F",
"w  c #1B2A4A",
"e  c #102754",
"r  c #142C58",
"t  c #163155",
"y  c #113456",
"u  c #1B375A",
"i  c #2E3856",
"p  c #4E3F5E",
"a  c #702545",
"s  c #16476D",
"d  c #1D406C",
"f  c #1B4777",
"g  c #1D4A70",
"h  c #254577",
"j  c #274B72",
"k  c #594143",
"l  c #75445F",
"z  c #5A5064",
"x  c #4A5372",
"c  c #674864",
"v  c #764C62",
"b  c #7A5B7C",
"n  c #726469",
"m  c #78667E",
"M  c #7D687C",
"N  c #820808",
"B  c #94140F",
"V  c #85111C",
"C  c #8E131C",
"Z  c #921711",
"A  c #9D231C",
"S  c #941821",
"D  c #941B21",
"F  c #822122",
"G  c #84272B",
"H  c #98262A",
"J  c #983537",
"K  c #A92B27",
"L  c #A82929",
"P  c #BD312C",
"I  c #8B5255",
"U  c #826F7B",
"Y  c #906575",
"T  c #956777",
"R  c #95757E",
"E  c #9A787E",
"W  c #265780",
"Q  c #285C89",
"!  c #2C6290",
"~  c #306A93",
"^  c #336B92",
"/  c #3A78A7",
"(  c #3679AC",
")  c #397AAF",
"_  c #387DB0",
"`  c #3E7EB3",
"'  c #5C6C83",
"]  c #756181",
"[  c #797284",
"{  c #827D92",
"}  c #A47482",
"|  c #A4738D",
" . c #3D87B9",
".. c #3D89BE",
"X. c #73828D",
"o. c #489ACF",
"O. c #52A2DC",
"+. c #52A5DF",
"@. c #4CA3E0",
"#. c #99868B",
"$. c #9F8A9B",
"%. c #8F92A4",
"&. c #9397B0",
"*. c #B4A6B9",
"=. c #8DA5C6",
"-. c #9FBBC2",
";. c #8AB0DA",
":. c #C1BFC9",
">. c #A5C1C9",
",. c #BBD7CE",
"<. c #BFDECF",
"1. c #BCCFD2",
"2. c #BAD3D7",
"3. c #BEDCD8",
"4. c #A0C5E6",
"5. c #A7C7E6",
"6. c #A7CAE4",
"7. c #CCD0D7",
"8. c #D0DCDE",
"9. c #C2E4CE",
"0. c #C8E7D5",
"q. c #CEE9D6",
"w. c #D1E1DF",
"e. c #D2EDDB",
"r. c #CFDCE1",
"t. c #CDD8E4",
"y. c #F1DFE5",
"u. c #DEE9E7",
"i. c #D3EEEA",
"p. c #D4EFE9",
"a. c #DAEAEA",
"s. c #E4E4E1",
"d. c #E7E7E8",
"f. c #EAEEEC",
"g. c #ECF6E7",
"h. c #E7F4E8",
"j. c #EBF6E9",
"k. c #EDF5ED",
"l. c #F8FBEB",
"z. c #E0F7F2",
"x. c #EDF9F5",
"c. c #F0F3F1",
/* pixels */
"                                                                ",
"                                @ X o                           ",
"                              H F * + .                         ",
"                              > 4 2 # O                         ",
"                              G J D < %                         ",
"                              L P V : $                         ",
"                              D C ; -                           ",
"                                  7 }                           ",
"                                  s.x.t.                        ",
"                                h.k.l.f.                        ",
"                                u.2.g.d.                        ",
"                              0.r.>.j.c.                        ",
"                              e.8.-.w.7.                        ",
"                              q.a.X.k p                         ",
"                              9.z.U N c ;.                      ",
"                              <.p.R B m 4.                      ",
"                              ,.i.E Z { 6.                      ",
"                              3.1.I A %.5.                      ",
"                                n 3 K [ =.                      ",
"                                & , 1 =                         ",
"                                u i 9 r                         ",
"                                ( @._ h                         ",
"                                / +. .d                         ",
"                                ^ O...f                         ",
"                                  ) o.` q                       ",
"                                  y s ! t                       ",
"                                  g ^ Q 0                       ",
"                                z x j W e                       ",
"                              #.| $.' 8 w                       ",
"                            *.y.:.&.] b M                       ",
"                            v T Y l a 6 5                       ",
"                                                                "
};
