/* XPM */
static char *_9257131946f40b3d4670a8478442613AkxYnmtHhEzWPu5t[] = {
/* columns rows colors chars-per-pixel */
"32 32 204 2 ",
"   c None",
".  c #15090B",
"X  c #180A0E",
"o  c #3F0B13",
"O  c #040F33",
"+  c #041335",
"@  c #141E36",
"#  c #500106",
"$  c #51050A",
"%  c #5C080F",
"&  c #460D14",
"*  c #4C0E15",
"=  c #4F1216",
"-  c #521014",
";  c #640615",
":  c #7B0E15",
">  c #6C1618",
",  c #7F1316",
"<  c #7D171D",
"1  c #7B1C1E",
"2  c #73221B",
"3  c #75201F",
"4  c #6D1729",
"5  c #711025",
"6  c #4E2535",
"7  c #762026",
"8  c #7E2420",
"9  c #7F2521",
"0  c #7D2621",
"q  c #75222C",
"w  c #7E2A2D",
"e  c #0A1A44",
"r  c #0C2042",
"t  c #162844",
"y  c #112D4B",
"u  c #112E4B",
"i  c #0D2551",
"p  c #113456",
"a  c #10355A",
"s  c #13325D",
"d  c #252B47",
"f  c #2A2946",
"g  c #322746",
"h  c #342546",
"j  c #253453",
"k  c #203554",
"l  c #543559",
"z  c #623F55",
"x  c #4D3F64",
"c  c #37405C",
"v  c #17426D",
"b  c #1F456B",
"n  c #1A406C",
"m  c #19446E",
"M  c #19466E",
"N  c #1A4771",
"B  c #1F4D7A",
"V  c #1C4E7F",
"C  c #204269",
"Z  c #214A70",
"A  c #204D76",
"S  c #214A7D",
"D  c #594042",
"F  c #56454E",
"G  c #69495F",
"H  c #784151",
"J  c #484F62",
"K  c #515765",
"L  c #5D557A",
"P  c #67506A",
"I  c #675969",
"U  c #7D506C",
"Y  c #655679",
"T  c #59697C",
"R  c #696978",
"E  c #851316",
"W  c #881016",
"Q  c #841D1E",
"!  c #8A181B",
"~  c #8F1B1C",
"^  c #93171A",
"/  c #94181B",
"(  c #9F1B1D",
")  c #A0211F",
"_  c #8D1B23",
"`  c #931E23",
"'  c #82292D",
"]  c #832C2D",
"[  c #A12727",
"{  c #A42B28",
"}  c #A02F2A",
"|  c #A3332B",
" . c #835E70",
".. c #9A6675",
"X. c #98677F",
"o. c #255C8A",
"O. c #315C8E",
"+. c #296189",
"@. c #266392",
"#. c #286694",
"$. c #34699F",
"%. c #346D9C",
"&. c #366E9E",
"*. c #316EA0",
"=. c #3471A2",
"-. c #3675A9",
";. c #3D7BAC",
":. c #71798A",
">. c #3E83B8",
",. c #728390",
"<. c #78909F",
"1. c #4486BF",
"2. c #7D98A7",
"3. c #458BC3",
"4. c #428EC6",
"5. c #488FC7",
"6. c #4193CB",
"7. c #4795CC",
"8. c #4C94C9",
"9. c #519ED8",
"0. c #559FD9",
"q. c #4EA0DA",
"w. c #52A1D7",
"e. c #56A4DD",
"r. c #55A7DC",
"t. c #A88988",
"y. c #B08698",
"u. c #9699AD",
"i. c #94A7A9",
"p. c #96A2AE",
"a. c #91A5AE",
"s. c #9BA8A8",
"d. c #9DA8A9",
"f. c #87A2B1",
"g. c #93B0BF",
"h. c #B1A3A3",
"j. c #ACA9BB",
"k. c #B1A6B8",
"l. c #C78E9B",
"z. c #D194A5",
"x. c #E696A4",
"c. c #9DB5C5",
"v. c #AABEC7",
"b. c #A7BDC9",
"n. c #CBBCCA",
"m. c #B1C6CD",
"M. c #AAC2D0",
"N. c #B0CAD3",
"B. c #B4CFD8",
"V. c #B6D1D3",
"C. c #B9D0D2",
"Z. c #B7D2DC",
"A. c #BCD5DF",
"S. c #C1D1D9",
"D. c #C1DDDC",
"F. c #DBDEDB",
"G. c #F1D6DF",
"H. c #CDE1D9",
"J. c #CEE1DC",
"K. c #D6E6DB",
"L. c #D2E4DE",
"P. c #D4E6DC",
"I. c #D4E7DF",
"U. c #D6E8DF",
"Y. c #E0EBDE",
"T. c #C4E2E2",
"R. c #D3E2E2",
"E. c #D9E6E1",
"W. c #DFE5E6",
"Q. c #DFECE0",
"!. c #E2EEE0",
"~. c #E1EFE5",
"^. c #E4EEE8",
"/. c #E9EFE9",
"(. c #F4E2E8",
"). c #E5F1E5",
"_. c #E8F2E3",
"`. c #EBF2E2",
"'. c #E8F4E3",
"]. c #EFF5E4",
"[. c #E9F6E9",
"{. c #EBF6EE",
"}. c #EDF8EF",
"|. c #F2F5E9",
" X c #F7FAE9",
".X c #F4F9EF",
"XX c #F4FAEE",
"oX c #FAFDE8",
"OX c #FAFDE9",
"+X c #FBFEE8",
"@X c #FBFEE9",
"#X c #F8FCEA",
"$X c #FCFEE9",
"%X c #FDFEEA",
"&X c #FEFEEA",
"*X c #FEFEEB",
"=X c #F9FCED",
"-X c #FDFFEC",
";X c #FEFFEC",
":X c #FEFFED",
">X c #EEF7F0",
",X c #F6FFF2",
"<X c #FBFEF2",
"1X c #FCFFF1",
/* pixels */
"                                                                ",
"                                . X                             ",
"                              < } | Q                           ",
"                              = 8 8 - o                         ",
"                              q w ] ' %                         ",
"                              ` [ { )                           ",
"                                , !                             ",
"                                * #                             ",
"                            {.^.h.t.F.>X                        ",
"                          ~.=X-X1X<X-XoXXX                      ",
"                          E.K.$XoXoX$XQ.J.).                    ",
"                        '.R.m. XoXoX$XC.V.}.                    ",
"                        /.S.c.|.oXoX$Xv.M.W.                    ",
"                          F 2.XXoXoX-Xb.K D                     ",
"                          ; <.,X$X_._.N.6 W                     ",
"                        3 5 f.[.$X!.I.Z.z /                     ",
"                        2 4 g.I.].Y.H.A.P ^                     ",
"                        8 _ p.T.U.L.D.B.H (                     ",
"                        1 E I a.d.s.i.,.7 ~                     ",
"                        > $ d V t @ B C & :                     ",
"                            *.q.A p 6.4.k                       ",
"                            1.r.Z y 7.9.O.                      ",
"                            5.w.b y 3.r.&.                      ",
"                            8.>.    $.0.;.                      ",
"                            =.@.    S -.&.                      ",
"                            v a O   i m n                       ",
"                          m #.N e   s +.o.                      ",
"                          J :.j +   r T R                       ",
"                          l.z.Y f   c y.x.                      ",
"                        k.(.j.L l   x u.G.n.                    ",
"                          X.U h     g G .. .                    ",
"                                                                "
};
